{
	"patcher" : 	{
		"fileversion" : 1,
		"appversion" : 		{
			"major" : 6,
			"minor" : 1,
			"revision" : 3,
			"architecture" : "x86"
		}
,
		"rect" : [ 100.0, 100.0, 573.0, 501.0 ],
		"bglocked" : 0,
		"openinpresentation" : 0,
		"default_fontsize" : 12.0,
		"default_fontface" : 0,
		"default_fontname" : "Arial",
		"gridonopen" : 0,
		"gridsize" : [ 15.0, 15.0 ],
		"gridsnaponopen" : 0,
		"statusbarvisible" : 2,
		"toolbarvisible" : 1,
		"boxanimatetime" : 200,
		"imprint" : 0,
		"enablehscroll" : 1,
		"enablevscroll" : 1,
		"devicewidth" : 0.0,
		"description" : "",
		"digest" : "",
		"tags" : "",
		"globalpatchername" : "ll.p.maxhelp1",
		"boxes" : [ 			{
				"box" : 				{
					"fontname" : "Arial",
					"fontsize" : 12.0,
					"id" : "obj-21",
					"maxclass" : "message",
					"numinlets" : 2,
					"numoutlets" : 1,
					"outlettype" : [ "" ],
					"patching_rect" : [ 161.0, 370.0, 39.0, 18.0 ],
					"text" : "slider"
				}

			}
, 			{
				"box" : 				{
					"fontname" : "Arial",
					"fontsize" : 12.0,
					"id" : "obj-12",
					"maxclass" : "message",
					"numinlets" : 2,
					"numoutlets" : 1,
					"outlettype" : [ "" ],
					"patching_rect" : [ 104.5, 362.5, 34.0, 18.0 ],
					"text" : "num"
				}

			}
, 			{
				"box" : 				{
					"fontname" : "Arial",
					"fontsize" : 12.0,
					"frgb" : 0.0,
					"id" : "obj-3",
					"linecount" : 2,
					"maxclass" : "comment",
					"numinlets" : 1,
					"numoutlets" : 0,
					"patching_rect" : [ 57.0, 65.0, 310.0, 34.0 ],
					"text" : "like ll.p but using a pattr inside.\nit is not recomended using a lot of ll.pp for speed issues."
				}

			}
, 			{
				"box" : 				{
					"fontname" : "Arial",
					"fontsize" : 12.0,
					"frgb" : 0.0,
					"id" : "obj-25",
					"maxclass" : "comment",
					"numinlets" : 1,
					"numoutlets" : 0,
					"patching_rect" : [ 299.0, 324.0, 34.0, 20.0 ],
					"text" : "men"
				}

			}
, 			{
				"box" : 				{
					"fontname" : "Arial",
					"fontsize" : 12.0,
					"id" : "obj-15",
					"items" : [ "a", ",", "b", ",", "c", ",", "d" ],
					"maxclass" : "umenu",
					"numinlets" : 1,
					"numoutlets" : 3,
					"outlettype" : [ "int", "", "" ],
					"parameter_enable" : 0,
					"patching_rect" : [ 266.0, 305.0, 100.0, 20.0 ],
					"pattrmode" : 1,
					"varname" : "men"
				}

			}
, 			{
				"box" : 				{
					"fontname" : "Arial",
					"fontsize" : 18.0,
					"frgb" : 0.0,
					"id" : "obj-10",
					"maxclass" : "comment",
					"numinlets" : 1,
					"numoutlets" : 0,
					"patching_rect" : [ 57.0, 5.0, 287.0, 27.0 ],
					"text" : "ll.pp"
				}

			}
, 			{
				"box" : 				{
					"fontname" : "Arial",
					"fontsize" : 12.0,
					"hidden" : 1,
					"id" : "obj-23",
					"maxclass" : "newobj",
					"numinlets" : 2,
					"numoutlets" : 0,
					"patching_rect" : [ 404.0, 439.5, 65.0, 20.0 ],
					"text" : "ll.autohelp"
				}

			}
, 			{
				"box" : 				{
					"fontname" : "Arial",
					"fontsize" : 12.0,
					"id" : "obj-19",
					"items" : [ "ll.pf", ",", "ll.par" ],
					"maxclass" : "umenu",
					"numinlets" : 1,
					"numoutlets" : 3,
					"outlettype" : [ "int", "", "" ],
					"parameter_enable" : 0,
					"patching_rect" : [ 387.0, 440.0, 72.0, 20.0 ],
					"prefix_mode" : 2,
					"showdotfiles" : 1
				}

			}
, 			{
				"box" : 				{
					"fontname" : "Arial",
					"fontsize" : 12.0,
					"frgb" : 0.0,
					"id" : "obj-37",
					"maxclass" : "comment",
					"numinlets" : 1,
					"numoutlets" : 0,
					"patching_rect" : [ 388.0, 422.0, 55.0, 20.0 ],
					"text" : "see also"
				}

			}
, 			{
				"box" : 				{
					"fontname" : "Arial",
					"fontsize" : 12.0,
					"frgb" : 0.0,
					"id" : "obj-33",
					"linecount" : 2,
					"maxclass" : "comment",
					"numinlets" : 1,
					"numoutlets" : 0,
					"patching_rect" : [ 230.0, 362.5, 258.0, 33.0 ],
					"text" : "ll.p takes one argument, which is the scripting name of the parameter it should bind to."
				}

			}
, 			{
				"box" : 				{
					"fontname" : "Arial",
					"fontsize" : 12.0,
					"id" : "obj-31",
					"maxclass" : "number",
					"numinlets" : 1,
					"numoutlets" : 2,
					"outlettype" : [ "int", "bang" ],
					"parameter_enable" : 0,
					"patching_rect" : [ 40.0, 392.0, 50.0, 20.0 ]
				}

			}
, 			{
				"box" : 				{
					"fontname" : "Arial",
					"fontsize" : 12.0,
					"id" : "obj-29",
					"maxclass" : "newobj",
					"numinlets" : 2,
					"numoutlets" : 1,
					"outlettype" : [ "" ],
					"patching_rect" : [ 89.0, 393.0, 65.0, 20.0 ],
					"text" : "ll.pp slider",
					"varname" : "ll.pp"
				}

			}
, 			{
				"box" : 				{
					"fontname" : "Arial",
					"fontsize" : 12.0,
					"frgb" : 0.0,
					"id" : "obj-28",
					"maxclass" : "comment",
					"numinlets" : 1,
					"numoutlets" : 0,
					"patching_rect" : [ 190.0, 326.0, 23.0, 20.0 ],
					"text" : "flo"
				}

			}
, 			{
				"box" : 				{
					"fontname" : "Arial",
					"fontsize" : 12.0,
					"id" : "obj-26",
					"maxclass" : "flonum",
					"maximum" : 11.1,
					"numinlets" : 1,
					"numoutlets" : 2,
					"outlettype" : [ "float", "bang" ],
					"parameter_enable" : 0,
					"patching_rect" : [ 181.0, 309.0, 50.0, 20.0 ],
					"varname" : "flo"
				}

			}
, 			{
				"box" : 				{
					"fontname" : "Arial",
					"fontsize" : 12.0,
					"frgb" : 0.0,
					"id" : "obj-24",
					"maxclass" : "comment",
					"numinlets" : 1,
					"numoutlets" : 0,
					"patching_rect" : [ 122.0, 326.0, 34.0, 20.0 ],
					"text" : "num"
				}

			}
, 			{
				"box" : 				{
					"fontname" : "Arial",
					"fontsize" : 12.0,
					"id" : "obj-22",
					"maxclass" : "number",
					"numinlets" : 1,
					"numoutlets" : 2,
					"outlettype" : [ "int", "bang" ],
					"parameter_enable" : 0,
					"patching_rect" : [ 115.0, 309.0, 50.0, 20.0 ],
					"varname" : "num"
				}

			}
, 			{
				"box" : 				{
					"fontname" : "Arial",
					"fontsize" : 12.0,
					"frgb" : 0.0,
					"id" : "obj-20",
					"maxclass" : "comment",
					"numinlets" : 1,
					"numoutlets" : 0,
					"patching_rect" : [ 297.0, 271.0, 49.0, 20.0 ],
					"text" : "2D"
				}

			}
, 			{
				"box" : 				{
					"id" : "obj-18",
					"maxclass" : "pictslider",
					"numinlets" : 2,
					"numoutlets" : 2,
					"outlettype" : [ "int", "int" ],
					"parameter_enable" : 0,
					"patching_rect" : [ 260.0, 174.0, 100.0, 100.0 ],
					"varname" : "2D"
				}

			}
, 			{
				"box" : 				{
					"fontname" : "Arial",
					"fontsize" : 12.0,
					"frgb" : 0.0,
					"id" : "obj-17",
					"maxclass" : "comment",
					"numinlets" : 1,
					"numoutlets" : 0,
					"patching_rect" : [ 150.0, 281.0, 42.0, 20.0 ],
					"text" : "multi"
				}

			}
, 			{
				"box" : 				{
					"id" : "obj-14",
					"maxclass" : "multislider",
					"numinlets" : 1,
					"numoutlets" : 2,
					"outlettype" : [ "", "" ],
					"parameter_enable" : 0,
					"patching_rect" : [ 95.0, 174.0, 159.0, 109.0 ],
					"setminmax" : [ 0.0, 100.0 ],
					"settype" : 0,
					"size" : 10,
					"varname" : "multi"
				}

			}
, 			{
				"box" : 				{
					"fontname" : "Arial",
					"fontsize" : 12.0,
					"frgb" : 0.0,
					"id" : "obj-13",
					"maxclass" : "comment",
					"numinlets" : 1,
					"numoutlets" : 0,
					"patching_rect" : [ 49.0, 296.0, 39.0, 20.0 ],
					"text" : "slider"
				}

			}
, 			{
				"box" : 				{
					"fontname" : "Arial",
					"fontsize" : 12.0,
					"frgb" : 0.0,
					"id" : "obj-11",
					"maxclass" : "comment",
					"numinlets" : 1,
					"numoutlets" : 0,
					"patching_rect" : [ 56.0, 152.0, 266.0, 20.0 ],
					"text" : "these userinterfaces are script named as labeld."
				}

			}
, 			{
				"box" : 				{
					"id" : "obj-9",
					"maxclass" : "slider",
					"numinlets" : 1,
					"numoutlets" : 1,
					"outlettype" : [ "" ],
					"parameter_enable" : 0,
					"patching_rect" : [ 50.0, 174.0, 35.0, 124.0 ],
					"varname" : "slider"
				}

			}
, 			{
				"box" : 				{
					"color" : [ 0.0, 0.0, 0.0, 1.0 ],
					"fontname" : "Arial",
					"fontsize" : 12.0,
					"hidden" : 1,
					"id" : "obj-2",
					"maxclass" : "newobj",
					"numinlets" : 2,
					"numoutlets" : 0,
					"patching_rect" : [ 427.0, 63.0, 127.0, 20.0 ],
					"text" : "actmaker ll.p.maxhelp",
					"varname" : "act"
				}

			}
, 			{
				"box" : 				{
					"fontname" : "Arial",
					"fontsize" : 18.0,
					"frgb" : 0.0,
					"id" : "obj-34",
					"maxclass" : "comment",
					"numinlets" : 1,
					"numoutlets" : 0,
					"patching_rect" : [ 57.0, 34.0, 287.0, 27.0 ],
					"text" : "bind to a parameter"
				}

			}
, 			{
				"box" : 				{
					"color" : [ 0.0, 0.0, 0.0, 1.0 ],
					"fontname" : "Arial",
					"fontsize" : 12.0,
					"hidden" : 1,
					"id" : "obj-4",
					"maxclass" : "newobj",
					"numinlets" : 1,
					"numoutlets" : 1,
					"outlettype" : [ "" ],
					"patching_rect" : [ 430.0, 14.0, 100.0, 20.0 ],
					"saved_object_attributes" : 					{
						"client_rect" : [ 499, 162, 1139, 402 ],
						"parameter_enable" : 0,
						"storage_rect" : [ 0, 0, 640, 240 ]
					}
,
					"text" : "pattrstorage pat",
					"varname" : "pat"
				}

			}
, 			{
				"box" : 				{
					"color" : [ 0.0, 0.0, 0.0, 1.0 ],
					"fontname" : "Arial",
					"fontsize" : 12.0,
					"hidden" : 1,
					"id" : "obj-5",
					"maxclass" : "newobj",
					"numinlets" : 1,
					"numoutlets" : 2,
					"outlettype" : [ "", "" ],
					"patching_rect" : [ 427.0, 101.0, 100.0, 20.0 ],
					"save" : [ "#N", "thispatcher", ";", "#Q", "end", ";" ],
					"text" : "thispatcher",
					"varname" : "thispatcher"
				}

			}
, 			{
				"box" : 				{
					"color" : [ 0.0, 0.0, 0.0, 1.0 ],
					"fontname" : "Arial",
					"fontsize" : 12.0,
					"hidden" : 1,
					"id" : "obj-6",
					"maxclass" : "newobj",
					"numinlets" : 1,
					"numoutlets" : 1,
					"outlettype" : [ "" ],
					"patching_rect" : [ 427.0, 126.0, 100.0, 20.0 ],
					"text" : "pattrmarker no",
					"varname" : "pattrmarker"
				}

			}
, 			{
				"box" : 				{
					"color" : [ 0.0, 0.0, 0.0, 1.0 ],
					"fontname" : "Arial",
					"fontsize" : 12.0,
					"hidden" : 1,
					"id" : "obj-8",
					"maxclass" : "newobj",
					"numinlets" : 1,
					"numoutlets" : 4,
					"outlettype" : [ "", "", "", "" ],
					"patching_rect" : [ 427.0, 149.0, 107.0, 20.0 ],
					"restore" : 					{
						"2D" : [ 20, 32 ],
						"flo" : [ 0.374 ],
						"men" : [ "b" ],
						"multi" : [ 29, 18, 13, 69, 62, 69, 47, 38, 25, 22 ],
						"num" : [ 56 ],
						"slider" : [ 45 ]
					}
,
					"text" : "autopattr autopattr",
					"varname" : "autopattr"
				}

			}
, 			{
				"box" : 				{
					"color" : [ 0.0, 0.0, 0.0, 1.0 ],
					"fontname" : "Arial",
					"fontsize" : 12.0,
					"hidden" : 1,
					"id" : "obj-7",
					"maxclass" : "newobj",
					"numinlets" : 1,
					"numoutlets" : 1,
					"outlettype" : [ "" ],
					"patching_rect" : [ 427.0, 40.0, 113.0, 20.0 ],
					"text" : "loadmess loadbang",
					"varname" : "loadmess"
				}

			}
 ],
		"lines" : [ 			{
				"patchline" : 				{
					"destination" : [ "obj-29", 1 ],
					"disabled" : 0,
					"hidden" : 0,
					"source" : [ "obj-12", 0 ]
				}

			}
, 			{
				"patchline" : 				{
					"destination" : [ "obj-23", 0 ],
					"disabled" : 0,
					"hidden" : 1,
					"source" : [ "obj-19", 1 ]
				}

			}
, 			{
				"patchline" : 				{
					"destination" : [ "obj-29", 1 ],
					"disabled" : 0,
					"hidden" : 0,
					"source" : [ "obj-21", 0 ]
				}

			}
, 			{
				"patchline" : 				{
					"destination" : [ "obj-31", 0 ],
					"disabled" : 0,
					"hidden" : 0,
					"source" : [ "obj-29", 0 ]
				}

			}
, 			{
				"patchline" : 				{
					"destination" : [ "obj-29", 0 ],
					"disabled" : 0,
					"hidden" : 0,
					"source" : [ "obj-31", 0 ]
				}

			}
, 			{
				"patchline" : 				{
					"destination" : [ "obj-2", 1 ],
					"disabled" : 0,
					"hidden" : 1,
					"source" : [ "obj-4", 0 ]
				}

			}
, 			{
				"patchline" : 				{
					"destination" : [ "obj-2", 0 ],
					"disabled" : 0,
					"hidden" : 1,
					"source" : [ "obj-7", 0 ]
				}

			}
 ],
		"dependency_cache" : [ 			{
				"name" : "actmaker.maxpat",
				"bootpath" : "/Applications/Max 6.1/Cycling '74/ppooll/abstractions",
				"patcherrelativepath" : "../../abstractions",
				"type" : "JSON",
				"implicit" : 1
			}
, 			{
				"name" : "tetrishelp.js",
				"bootpath" : "/Applications/Max 6.1/Cycling '74/ppooll/javascripts",
				"patcherrelativepath" : "../../javascripts",
				"type" : "TEXT",
				"implicit" : 1
			}
, 			{
				"name" : "n.maxpat",
				"bootpath" : "/Applications/Max 6.1/Cycling '74/ppooll/abstractions",
				"patcherrelativepath" : "../../abstractions",
				"type" : "JSON",
				"implicit" : 1
			}
, 			{
				"name" : "ll.psto.maxpat",
				"bootpath" : "/Applications/Max 6.1/Cycling '74/ppooll/abstractions",
				"patcherrelativepath" : "../../abstractions",
				"type" : "JSON",
				"implicit" : 1
			}
, 			{
				"name" : "ll.actname.maxpat",
				"bootpath" : "/Applications/Max 6.1/Cycling '74/ppooll/abstractions",
				"patcherrelativepath" : "../../abstractions",
				"type" : "JSON",
				"implicit" : 1
			}
, 			{
				"name" : "ll.shut.maxpat",
				"bootpath" : "/Applications/Max 6.1/Cycling '74/ppooll/abstractions",
				"patcherrelativepath" : "../../abstractions",
				"type" : "JSON",
				"implicit" : 1
			}
, 			{
				"name" : "ll.strip#.maxpat",
				"bootpath" : "/Applications/Max 6.1/Cycling '74/ppooll/abstractions",
				"patcherrelativepath" : "../../abstractions",
				"type" : "JSON",
				"implicit" : 1
			}
, 			{
				"name" : "ll.pp.maxpat",
				"bootpath" : "/Applications/Max 6.1/Cycling '74/ppooll/abstractions",
				"patcherrelativepath" : "../../abstractions",
				"type" : "JSON",
				"implicit" : 1
			}
, 			{
				"name" : "ll.actnamehelper.maxpat",
				"bootpath" : "/Applications/Max 6.1/Cycling '74/ppooll/abstractions",
				"patcherrelativepath" : "../../abstractions",
				"type" : "JSON",
				"implicit" : 1
			}
, 			{
				"name" : "ll.an.js",
				"bootpath" : "/Applications/Max 6.1/Cycling '74/ppooll/javascripts",
				"patcherrelativepath" : "../../javascripts",
				"type" : "TEXT",
				"implicit" : 1
			}
, 			{
				"name" : "ll.autohelp.maxpat",
				"bootpath" : "/Applications/Max 6.1/Cycling '74/ppooll/abstractions",
				"patcherrelativepath" : "../../abstractions",
				"type" : "JSON",
				"implicit" : 1
			}
, 			{
				"name" : "_.mxo",
				"type" : "iLaX"
			}
, 			{
				"name" : "strcat.mxo",
				"type" : "iLaX"
			}
, 			{
				"name" : "pattrexists.mxo",
				"type" : "iLaX"
			}
, 			{
				"name" : "ll_fastforward.mxo",
				"type" : "iLaX"
			}
, 			{
				"name" : "xroute.mxo",
				"type" : "iLaX"
			}
 ]
	}

}
