{
	"patcher" : 	{
		"fileversion" : 1,
		"appversion" : 		{
			"major" : 8,
			"minor" : 1,
			"revision" : 2,
			"architecture" : "x64",
			"modernui" : 1
		}
,
		"classnamespace" : "box",
		"rect" : [ 118.0, 150.0, 1306.0, 838.0 ],
		"bglocked" : 0,
		"openinpresentation" : 0,
		"default_fontsize" : 12.0,
		"default_fontface" : 0,
		"default_fontname" : "Arial",
		"gridonopen" : 1,
		"gridsize" : [ 15.0, 15.0 ],
		"gridsnaponopen" : 1,
		"objectsnaponopen" : 1,
		"statusbarvisible" : 2,
		"toolbarvisible" : 0,
		"lefttoolbarpinned" : 0,
		"toptoolbarpinned" : 0,
		"righttoolbarpinned" : 0,
		"bottomtoolbarpinned" : 0,
		"toolbars_unpinned_last_save" : 0,
		"tallnewobj" : 0,
		"boxanimatetime" : 200,
		"enablehscroll" : 1,
		"enablevscroll" : 1,
		"devicewidth" : 0.0,
		"description" : "",
		"digest" : "",
		"tags" : "",
		"style" : "",
		"subpatcher_template" : "",
		"globalpatchername" : "blue.output.section.info1",
		"boxes" : [ 			{
				"box" : 				{
					"fontname" : "Arial",
					"fontsize" : 12.0,
					"id" : "obj-34",
					"linecount" : 2,
					"maxclass" : "message",
					"numinlets" : 2,
					"numoutlets" : 1,
					"outlettype" : [ "" ],
					"patching_rect" : [ 241.0, 614.0, 149.0, 35.0 ],
					"presentation_linecount" : 2,
					"text" : ";\rdistort@1 ll.blues::volL 0.1"
				}

			}
, 			{
				"box" : 				{
					"fontname" : "Arial",
					"fontsize" : 12.0,
					"id" : "obj-32",
					"maxclass" : "comment",
					"numinlets" : 1,
					"numoutlets" : 0,
					"patching_rect" : [ 23.0, 614.5, 357.0, 20.0 ],
					"text" : "and turn on the volume of distort a bit"
				}

			}
, 			{
				"box" : 				{
					"fontname" : "Arial",
					"fontsize" : 12.0,
					"id" : "obj-31",
					"maxclass" : "message",
					"numinlets" : 2,
					"numoutlets" : 1,
					"outlettype" : [ "" ],
					"patching_rect" : [ 387.0, 577.5, 49.0, 22.0 ],
					"text" : "mix 1."
				}

			}
, 			{
				"box" : 				{
					"fontname" : "Arial",
					"fontsize" : 12.0,
					"id" : "obj-30",
					"maxclass" : "message",
					"numinlets" : 2,
					"numoutlets" : 1,
					"outlettype" : [ "" ],
					"patching_rect" : [ 169.5, 542.5, 71.0, 22.0 ],
					"text" : "chan_1 in.1"
				}

			}
, 			{
				"box" : 				{
					"id" : "obj-28",
					"maxclass" : "comment",
					"numinlets" : 1,
					"numoutlets" : 0,
					"patching_rect" : [ 267.0, 106.0, 142.0, 20.0 ],
					"presentation_linecount" : 2,
					"text" : "output menues (address)"
				}

			}
, 			{
				"box" : 				{
					"id" : "obj-25",
					"maxclass" : "comment",
					"numinlets" : 1,
					"numoutlets" : 0,
					"patching_rect" : [ 234.0, 142.0, 137.0, 20.0 ],
					"text" : "info and 2 more settings"
				}

			}
, 			{
				"box" : 				{
					"id" : "obj-38",
					"maxclass" : "comment",
					"numinlets" : 1,
					"numoutlets" : 0,
					"patching_rect" : [ 154.5, 167.0, 218.0, 20.0 ],
					"text" : "show dark-blue/light-blue output menus"
				}

			}
, 			{
				"box" : 				{
					"id" : "obj-26",
					"maxclass" : "comment",
					"numinlets" : 1,
					"numoutlets" : 0,
					"patching_rect" : [ 101.0, 142.0, 121.0, 20.0 ],
					"text" : "output-channel-count"
				}

			}
, 			{
				"box" : 				{
					"fontname" : "Arial",
					"fontsize" : 12.0,
					"id" : "obj-24",
					"linecount" : 4,
					"maxclass" : "comment",
					"numinlets" : 1,
					"numoutlets" : 0,
					"patching_rect" : [ 606.0, 353.5, 391.0, 60.0 ],
					"text" : "output-channel-count:\nlets you define how many channels should be sent.\nit can be bigger or smaller than the incoming channel count.\nif smaller, the remaining channels will be mixed into the outgoing ones."
				}

			}
, 			{
				"box" : 				{
					"fontname" : "Arial",
					"fontsize" : 12.0,
					"id" : "obj-23",
					"linecount" : 2,
					"maxclass" : "comment",
					"numinlets" : 1,
					"numoutlets" : 0,
					"patching_rect" : [ 23.0, 661.5, 374.0, 33.0 ],
					"text" : "click on the x in the bottom line to change which output destination you want to be indicated by the menus."
				}

			}
, 			{
				"box" : 				{
					"fontname" : "Arial",
					"fontsize" : 12.0,
					"id" : "obj-15",
					"maxclass" : "comment",
					"numinlets" : 1,
					"numoutlets" : 0,
					"patching_rect" : [ 23.0, 351.0, 377.0, 20.0 ],
					"text" : "with the mix slider you have the possibility to send it somewhere else."
				}

			}
, 			{
				"box" : 				{
					"fontname" : "Arial",
					"fontsize" : 12.0,
					"id" : "obj-11",
					"linecount" : 4,
					"maxclass" : "comment",
					"numinlets" : 1,
					"numoutlets" : 0,
					"patching_rect" : [ 78.5, 378.5, 417.0, 60.0 ],
					"text" : "MIX: if the mix slider is all the way to the left (default) (it is all light blue)\n    ll.blues will send to the address indicated by the light blue menus.\n    if the mix slider is all the way to the right (it is all dark blue)\n   ll.blues will send to the address indicated by the dark blue menus."
				}

			}
, 			{
				"box" : 				{
					"args" : [ "@levels", 0.2, 0.2, 0.0, 0.0, 10.0, 0.0, 0.5 ],
					"bgmode" : 0,
					"border" : 0,
					"clickthrough" : 0,
					"enablehscroll" : 0,
					"enablevscroll" : 0,
					"id" : "obj-7",
					"lockeddragscroll" : 0,
					"maxclass" : "bpatcher",
					"name" : "ll.blues.maxpat",
					"numinlets" : 1,
					"numoutlets" : 0,
					"offset" : [ 0.0, 0.0 ],
					"patching_rect" : [ 88.0, 83.0, 160.0, 53.0 ],
					"varname" : "ll.blues",
					"viewvisibility" : 1
				}

			}
, 			{
				"box" : 				{
					"id" : "obj-22",
					"linecount" : 2,
					"maxclass" : "newobj",
					"numinlets" : 2,
					"numoutlets" : 1,
					"outlettype" : [ "multichannelsignal" ],
					"patching_rect" : [ 88.0, 27.5, 131.0, 35.0 ],
					"text" : "mc.cycle~ @chans 2 @values 300 430",
					"varname" : "ch2"
				}

			}
, 			{
				"box" : 				{
					"fontname" : "Arial",
					"fontsize" : 12.0,
					"id" : "obj-9",
					"linecount" : 2,
					"maxclass" : "comment",
					"numinlets" : 1,
					"numoutlets" : 0,
					"patching_rect" : [ 23.0, 507.5, 573.0, 33.0 ],
					"text" : "lets send our two sinewaves into this plugin:\naddress distort@ with the dark blue menus, starting with the very left one:"
				}

			}
, 			{
				"box" : 				{
					"fontname" : "Arial",
					"fontsize" : 12.0,
					"id" : "obj-76",
					"maxclass" : "message",
					"numinlets" : 2,
					"numoutlets" : 1,
					"outlettype" : [ "" ],
					"patching_rect" : [ 862.0, 286.5, 48.0, 22.0 ],
					"text" : "ramp 0"
				}

			}
, 			{
				"box" : 				{
					"fontname" : "Arial",
					"fontsize" : 12.0,
					"id" : "obj-71",
					"maxclass" : "message",
					"numinlets" : 2,
					"numoutlets" : 1,
					"outlettype" : [ "" ],
					"patching_rect" : [ 566.5, 744.0, 41.0, 22.0 ],
					"text" : "mix 1."
				}

			}
, 			{
				"box" : 				{
					"fontname" : "Arial",
					"fontsize" : 12.0,
					"id" : "obj-70",
					"maxclass" : "message",
					"numinlets" : 2,
					"numoutlets" : 1,
					"outlettype" : [ "" ],
					"patching_rect" : [ 409.5, 699.0, 41.0, 22.0 ],
					"text" : "mix 0."
				}

			}
, 			{
				"box" : 				{
					"fontname" : "Arial",
					"fontsize" : 12.0,
					"id" : "obj-69",
					"maxclass" : "comment",
					"numinlets" : 1,
					"numoutlets" : 0,
					"patching_rect" : [ 114.5, 744.0, 493.0, 20.0 ],
					"text" : "thats the destination, of the signal if the mix slider is at the right (all dark-blue then)"
				}

			}
, 			{
				"box" : 				{
					"fontname" : "Arial",
					"fontsize" : 12.0,
					"id" : "obj-67",
					"maxclass" : "message",
					"numinlets" : 2,
					"numoutlets" : 1,
					"outlettype" : [ "" ],
					"patching_rect" : [ 20.5, 744.0, 92.0, 22.0 ],
					"text" : "show dark-blue"
				}

			}
, 			{
				"box" : 				{
					"fontname" : "Arial",
					"fontsize" : 12.0,
					"hidden" : 1,
					"id" : "obj-68",
					"maxclass" : "message",
					"numinlets" : 2,
					"numoutlets" : 1,
					"outlettype" : [ "" ],
					"patching_rect" : [ 576.0, 704.0, 75.0, 22.0 ],
					"text" : "state 2 1 0 0"
				}

			}
, 			{
				"box" : 				{
					"fontname" : "Arial",
					"fontsize" : 12.0,
					"id" : "obj-66",
					"maxclass" : "comment",
					"numinlets" : 1,
					"numoutlets" : 0,
					"patching_rect" : [ 20.5, 722.0, 529.0, 20.0 ],
					"text" : "in some situations you may want to change this, but normally you just leave it as it is."
				}

			}
, 			{
				"box" : 				{
					"fontname" : "Arial",
					"fontsize" : 12.0,
					"id" : "obj-65",
					"maxclass" : "comment",
					"numinlets" : 1,
					"numoutlets" : 0,
					"patching_rect" : [ 109.5, 699.0, 406.0, 20.0 ],
					"text" : "thats where the signal goes by default: ho_st out.1"
				}

			}
, 			{
				"box" : 				{
					"fontname" : "Arial",
					"fontsize" : 12.0,
					"id" : "obj-63",
					"maxclass" : "message",
					"numinlets" : 2,
					"numoutlets" : 1,
					"outlettype" : [ "" ],
					"patching_rect" : [ 20.5, 698.0, 91.0, 22.0 ],
					"text" : "show light-blue"
				}

			}
, 			{
				"box" : 				{
					"fontname" : "Arial",
					"fontsize" : 12.0,
					"hidden" : 1,
					"id" : "obj-62",
					"maxclass" : "message",
					"numinlets" : 2,
					"numoutlets" : 1,
					"outlettype" : [ "" ],
					"patching_rect" : [ 571.0, 681.0, 75.0, 22.0 ],
					"text" : "state 2 0 0 0"
				}

			}
, 			{
				"box" : 				{
					"fontname" : "Arial",
					"fontsize" : 12.0,
					"id" : "obj-59",
					"linecount" : 7,
					"maxclass" : "comment",
					"numinlets" : 1,
					"numoutlets" : 0,
					"patching_rect" : [ 606.0, 27.5, 610.0, 100.0 ],
					"text" : "v_vol\ns_split_L/R\np_vol/pan    you can select one of these 3 layouts\n-\nmeters post      the signal meters show post-fade signal by default. if unchecked, they show pre-fade.\n-\ninfo    opens this info window"
				}

			}
, 			{
				"box" : 				{
					"fontname" : "Arial",
					"fontsize" : 12.0,
					"id" : "obj-49",
					"maxclass" : "comment",
					"numinlets" : 1,
					"numoutlets" : 0,
					"patching_rect" : [ 944.5, 306.5, 147.0, 20.0 ],
					"text" : "same for the mix sliders..."
				}

			}
, 			{
				"box" : 				{
					"fontname" : "Arial",
					"fontsize" : 12.0,
					"id" : "obj-48",
					"maxclass" : "comment",
					"numinlets" : 1,
					"numoutlets" : 0,
					"patching_rect" : [ 1022.0, 282.5, 51.0, 20.0 ],
					"text" : "fadein"
				}

			}
, 			{
				"box" : 				{
					"fontname" : "Arial",
					"fontsize" : 12.0,
					"id" : "obj-47",
					"maxclass" : "message",
					"numinlets" : 2,
					"numoutlets" : 1,
					"outlettype" : [ "" ],
					"patching_rect" : [ 969.0, 282.5, 52.0, 22.0 ],
					"text" : "volL 0.5"
				}

			}
, 			{
				"box" : 				{
					"fontname" : "Arial",
					"fontsize" : 12.0,
					"id" : "obj-46",
					"maxclass" : "comment",
					"numinlets" : 1,
					"numoutlets" : 0,
					"patching_rect" : [ 1022.0, 259.5, 51.0, 20.0 ],
					"text" : "fadeout"
				}

			}
, 			{
				"box" : 				{
					"fontname" : "Arial",
					"fontsize" : 12.0,
					"id" : "obj-45",
					"maxclass" : "message",
					"numinlets" : 2,
					"numoutlets" : 1,
					"outlettype" : [ "" ],
					"patching_rect" : [ 969.0, 259.5, 42.0, 22.0 ],
					"text" : "volL 0"
				}

			}
, 			{
				"box" : 				{
					"fontname" : "Arial",
					"fontsize" : 12.0,
					"id" : "obj-44",
					"maxclass" : "comment",
					"numinlets" : 1,
					"numoutlets" : 0,
					"patching_rect" : [ 933.0, 257.5, 26.0, 20.0 ],
					"text" : "ms"
				}

			}
, 			{
				"box" : 				{
					"fontname" : "Arial",
					"fontsize" : 12.0,
					"id" : "obj-43",
					"maxclass" : "message",
					"numinlets" : 2,
					"numoutlets" : 1,
					"outlettype" : [ "" ],
					"patching_rect" : [ 863.0, 258.5, 68.0, 22.0 ],
					"text" : "ramp 3000"
				}

			}
, 			{
				"box" : 				{
					"fontname" : "Arial",
					"fontsize" : 12.0,
					"id" : "obj-37",
					"linecount" : 3,
					"maxclass" : "comment",
					"numinlets" : 1,
					"numoutlets" : 0,
					"patching_rect" : [ 606.0, 167.0, 450.0, 47.0 ],
					"text" : "pfl (pre fade listening) is yet another output.\npfl sends the input signal of ll.blues brfore the vol-slider to an output channel that can be defined in \"ho_st\" with \"def\". (useful with a soundcard and headphones..)"
				}

			}
, 			{
				"box" : 				{
					"fontname" : "Arial",
					"fontsize" : 12.0,
					"id" : "obj-36",
					"linecount" : 2,
					"maxclass" : "comment",
					"numinlets" : 1,
					"numoutlets" : 0,
					"patching_rect" : [ 606.0, 267.0, 391.0, 33.0 ],
					"text" : "ramp offers a fade time for all the levels.\ntest with audio ON:"
				}

			}
, 			{
				"box" : 				{
					"fontname" : "Arial",
					"fontsize" : 12.0,
					"id" : "obj-19",
					"maxclass" : "comment",
					"numinlets" : 1,
					"numoutlets" : 0,
					"patching_rect" : [ 606.0, 8.0, 373.0, 20.0 ],
					"text" : "click in the bottom right corner, a menu pops up:",
					"underline" : 1
				}

			}
, 			{
				"box" : 				{
					"fontname" : "Arial",
					"fontsize" : 12.0,
					"id" : "obj-20",
					"maxclass" : "message",
					"numinlets" : 2,
					"numoutlets" : 1,
					"outlettype" : [ "" ],
					"patching_rect" : [ 65.0, 542.5, 93.0, 22.0 ],
					"text" : "act_1 distort@1"
				}

			}
, 			{
				"box" : 				{
					"fontname" : "Arial",
					"fontsize" : 12.0,
					"id" : "obj-33",
					"maxclass" : "message",
					"numinlets" : 2,
					"numoutlets" : 1,
					"outlettype" : [ "" ],
					"patching_rect" : [ 23.0, 373.5, 41.0, 22.0 ],
					"text" : "mix 0."
				}

			}
, 			{
				"box" : 				{
					"fontname" : "Arial",
					"fontsize" : 12.0,
					"id" : "obj-50",
					"maxclass" : "message",
					"numinlets" : 2,
					"numoutlets" : 1,
					"outlettype" : [ "" ],
					"patching_rect" : [ 23.0, 397.5, 47.0, 22.0 ],
					"text" : "mix 0.5"
				}

			}
, 			{
				"box" : 				{
					"fontname" : "Arial",
					"fontsize" : 12.0,
					"id" : "obj-13",
					"maxclass" : "message",
					"numinlets" : 2,
					"numoutlets" : 1,
					"outlettype" : [ "" ],
					"patching_rect" : [ 23.0, 421.5, 49.0, 22.0 ],
					"text" : "mix 1."
				}

			}
, 			{
				"box" : 				{
					"fontname" : "Arial",
					"fontsize" : 12.0,
					"id" : "obj-51",
					"maxclass" : "comment",
					"numinlets" : 1,
					"numoutlets" : 0,
					"patching_rect" : [ 23.0, 577.5, 357.0, 20.0 ],
					"text" : "to actually send it there make sure the mix-slider is set to the right"
				}

			}
, 			{
				"box" : 				{
					"fontname" : "Arial",
					"fontsize" : 12.0,
					"id" : "obj-52",
					"linecount" : 2,
					"maxclass" : "message",
					"numinlets" : 2,
					"numoutlets" : 1,
					"outlettype" : [ "" ],
					"patching_rect" : [ 382.0, 466.0, 151.0, 35.0 ],
					"text" : ";\rho_st1 act_menu distort@"
				}

			}
, 			{
				"box" : 				{
					"fontname" : "Arial",
					"fontsize" : 12.0,
					"id" : "obj-53",
					"linecount" : 3,
					"maxclass" : "comment",
					"numinlets" : 1,
					"numoutlets" : 0,
					"patching_rect" : [ 23.0, 454.0, 483.0, 47.0 ],
					"text" : "the dark-blue output menus point no-where, by default.\nroute the audio signal somewhere else, most likely into a plugin.\nlets open a plugin, distort@ for example:"
				}

			}
, 			{
				"box" : 				{
					"fontname" : "Arial",
					"fontsize" : 12.0,
					"id" : "obj-92",
					"maxclass" : "comment",
					"numinlets" : 1,
					"numoutlets" : 0,
					"patching_rect" : [ 23.0, 329.0, 307.0, 20.0 ],
					"text" : "by default the audio is sent to ho_st left and right output."
				}

			}
, 			{
				"box" : 				{
					"fontname" : "Arial",
					"fontsize" : 12.0,
					"id" : "obj-90",
					"maxclass" : "comment",
					"numinlets" : 1,
					"numoutlets" : 0,
					"patching_rect" : [ 82.0, 303.0, 234.0, 20.0 ],
					"text" : "<<< click on this to go back to volume 0.2."
				}

			}
, 			{
				"box" : 				{
					"fontname" : "Arial",
					"fontsize" : 12.0,
					"id" : "obj-89",
					"maxclass" : "newobj",
					"numinlets" : 0,
					"numoutlets" : 0,
					"patcher" : 					{
						"fileversion" : 1,
						"appversion" : 						{
							"major" : 8,
							"minor" : 1,
							"revision" : 2,
							"architecture" : "x64",
							"modernui" : 1
						}
,
						"classnamespace" : "box",
						"rect" : [ 593.0, 300.0, 571.0, 485.0 ],
						"bglocked" : 0,
						"openinpresentation" : 0,
						"default_fontsize" : 12.0,
						"default_fontface" : 0,
						"default_fontname" : "Arial",
						"gridonopen" : 1,
						"gridsize" : [ 15.0, 15.0 ],
						"gridsnaponopen" : 1,
						"objectsnaponopen" : 1,
						"statusbarvisible" : 2,
						"toolbarvisible" : 0,
						"lefttoolbarpinned" : 0,
						"toptoolbarpinned" : 0,
						"righttoolbarpinned" : 0,
						"bottomtoolbarpinned" : 0,
						"toolbars_unpinned_last_save" : 0,
						"tallnewobj" : 0,
						"boxanimatetime" : 200,
						"enablehscroll" : 1,
						"enablevscroll" : 1,
						"devicewidth" : 0.0,
						"description" : "",
						"digest" : "",
						"tags" : "",
						"style" : "",
						"subpatcher_template" : "",
						"boxes" : [ 							{
								"box" : 								{
									"fontname" : "Arial",
									"fontsize" : 12.0,
									"id" : "obj-10",
									"maxclass" : "comment",
									"numinlets" : 1,
									"numoutlets" : 0,
									"patching_rect" : [ 11.0, 370.0, 113.0, 20.0 ],
									"text" : "and drive the value:"
								}

							}
, 							{
								"box" : 								{
									"fontname" : "Arial",
									"fontsize" : 12.0,
									"id" : "obj-9",
									"maxclass" : "message",
									"numinlets" : 2,
									"numoutlets" : 1,
									"outlettype" : [ "" ],
									"patching_rect" : [ 375.0, 18.0, 120.0, 22.0 ],
									"text" : "symbol clientwindow"
								}

							}
, 							{
								"box" : 								{
									"fontname" : "Arial",
									"fontsize" : 12.0,
									"id" : "obj-5",
									"maxclass" : "newobj",
									"numinlets" : 2,
									"numoutlets" : 2,
									"outlettype" : [ "", "bang" ],
									"patching_rect" : [ 375.0, 42.0, 88.0, 22.0 ],
									"text" : "ll.pf title_menu"
								}

							}
, 							{
								"box" : 								{
									"fontname" : "Arial",
									"fontsize" : 12.0,
									"id" : "obj-7",
									"maxclass" : "message",
									"numinlets" : 2,
									"numoutlets" : 1,
									"outlettype" : [ "" ],
									"patching_rect" : [ 25.0, 448.0, 127.0, 22.0 ],
									"text" : "0.2"
								}

							}
, 							{
								"box" : 								{
									"fontname" : "Arial",
									"fontsize" : 12.0,
									"id" : "obj-6",
									"linecount" : 2,
									"maxclass" : "comment",
									"numinlets" : 1,
									"numoutlets" : 0,
									"patching_rect" : [ 16.0, 289.0, 533.0, 33.0 ],
									"text" : "to control from other acts like control@ eg. you need to use the additional \"listitem\" to adress a single parameter:"
								}

							}
, 							{
								"box" : 								{
									"fontname" : "Arial",
									"fontsize" : 12.0,
									"id" : "obj-4",
									"linecount" : 2,
									"maxclass" : "comment",
									"numinlets" : 1,
									"numoutlets" : 0,
									"patching_rect" : [ 384.0, 327.5, 159.0, 33.0 ],
									"text" : "1: volL, 2: volR, 3: mix, 4: -, 5: ramp, 6:  pfl, 7: pan"
								}

							}
, 							{
								"box" : 								{
									"fontname" : "Arial",
									"fontsize" : 12.0,
									"id" : "obj-3",
									"maxclass" : "comment",
									"numinlets" : 1,
									"numoutlets" : 0,
									"patching_rect" : [ 288.0, 334.0, 85.0, 20.0 ],
									"text" : "ll.blues::levels"
								}

							}
, 							{
								"box" : 								{
									"fontname" : "Arial",
									"fontsize" : 12.0,
									"id" : "obj-2",
									"maxclass" : "comment",
									"numinlets" : 1,
									"numoutlets" : 0,
									"patching_rect" : [ 141.0, 334.0, 139.0, 20.0 ],
									"text" : "blue.output.section.info1"
								}

							}
, 							{
								"box" : 								{
									"fontname" : "Arial",
									"fontsize" : 12.0,
									"id" : "obj-1",
									"maxclass" : "comment",
									"numinlets" : 1,
									"numoutlets" : 0,
									"patching_rect" : [ 18.0, 334.0, 121.0, 20.0 ],
									"text" : "for instance, choose:"
								}

							}
, 							{
								"box" : 								{
									"bgcolor" : [ 0.294118, 1.0, 0.294118, 1.0 ],
									"fontname" : "Arial",
									"fontsize" : 12.0,
									"htricolor" : [ 0.87, 0.82, 0.24, 1.0 ],
									"id" : "obj-11",
									"maxclass" : "number",
									"maximum" : 7,
									"minimum" : -1,
									"numinlets" : 1,
									"numoutlets" : 2,
									"outlettype" : [ "", "bang" ],
									"parameter_enable" : 0,
									"patching_rect" : [ 380.0, 356.0, 53.0, 22.0 ],
									"textcolor" : [ 0.0, 0.0, 0.0, 1.0 ],
									"tricolor" : [ 0.75, 0.75, 0.75, 1.0 ]
								}

							}
, 							{
								"box" : 								{
									"fontname" : "Arial",
									"fontsize" : 12.0,
									"id" : "obj-12",
									"maxclass" : "newobj",
									"numinlets" : 4,
									"numoutlets" : 6,
									"outlettype" : [ "", "", "", "", "", "" ],
									"patching_rect" : [ 18.0, 419.0, 375.5, 22.0 ],
									"text" : "ll.par",
									"varname" : "ll.par[1]"
								}

							}
, 							{
								"box" : 								{
									"fontname" : "Arial",
									"fontsize" : 11.595186999999999,
									"format" : 6,
									"id" : "obj-13",
									"maxclass" : "flonum",
									"numinlets" : 1,
									"numoutlets" : 2,
									"outlettype" : [ "", "bang" ],
									"parameter_enable" : 0,
									"patching_rect" : [ 18.0, 392.0, 50.0, 21.0 ]
								}

							}
, 							{
								"box" : 								{
									"allowdrag" : 0,
									"bgcolor" : [ 0.294118, 1.0, 0.294118, 1.0 ],
									"bgfillcolor_angle" : 270.0,
									"bgfillcolor_color" : [ 0.294118, 1.0, 0.294118, 1.0 ],
									"bgfillcolor_color1" : [ 0.376471, 0.384314, 0.4, 1.0 ],
									"bgfillcolor_color2" : [ 0.290196, 0.309804, 0.301961, 1.0 ],
									"bgfillcolor_proportion" : 0.39,
									"bgfillcolor_type" : "color",
									"fontsize" : 11.595186999999999,
									"id" : "obj-14",
									"items" : [ "no", ",", "blue.output.section.info1", ",", "distort@1", ",", "ho_st1", ",", "ll.blues.help2" ],
									"maxclass" : "umenu",
									"numinlets" : 1,
									"numoutlets" : 3,
									"outlettype" : [ "int", "", "" ],
									"parameter_enable" : 0,
									"patching_rect" : [ 141.0, 356.0, 139.0, 21.0 ],
									"pattrmode" : 1,
									"presentation" : 1,
									"presentation_rect" : [ 142.0, 184.0, 100.0, 21.0 ],
									"textcolor" : [ 0.149, 0.149, 0.149, 1.0 ]
								}

							}
, 							{
								"box" : 								{
									"allowdrag" : 0,
									"bgcolor" : [ 0.294118, 1.0, 0.294118, 1.0 ],
									"bgfillcolor_angle" : 270.0,
									"bgfillcolor_color" : [ 0.294118, 1.0, 0.294118, 1.0 ],
									"bgfillcolor_color1" : [ 0.376471, 0.384314, 0.4, 1.0 ],
									"bgfillcolor_color2" : [ 0.290196, 0.309804, 0.301961, 1.0 ],
									"bgfillcolor_proportion" : 0.39,
									"bgfillcolor_type" : "color",
									"fontsize" : 11.595186999999999,
									"id" : "obj-15",
									"items" : [ "-no-", ",", "ll.blues::state", ",", "ll.blues::outputs", ",", "ll.blues::levels", ",", "act::active_store", ",", "master", ",", "title_menu", ",", "pres_menu", ",", "tetris_menu" ],
									"maxclass" : "umenu",
									"numinlets" : 1,
									"numoutlets" : 3,
									"outlettype" : [ "int", "", "" ],
									"parameter_enable" : 0,
									"patching_rect" : [ 288.0, 356.0, 85.0, 21.0 ],
									"pattrmode" : 1,
									"presentation" : 1,
									"presentation_rect" : [ 218.0, 184.0, 100.0, 21.0 ],
									"textcolor" : [ 0.149, 0.149, 0.149, 1.0 ]
								}

							}
, 							{
								"box" : 								{
									"fontname" : "Arial",
									"fontsize" : 12.0,
									"id" : "obj-27",
									"linecount" : 5,
									"maxclass" : "comment",
									"numinlets" : 1,
									"numoutlets" : 0,
									"patching_rect" : [ 20.0, 206.0, 434.0, 74.0 ],
									"text" : "state: \n1: loutput-channel-count\n2: show dark-blue / show light-blue\n3: layout (0, 1, 2)\n4: meters post/pre"
								}

							}
, 							{
								"box" : 								{
									"fontname" : "Arial",
									"fontsize" : 12.0,
									"id" : "obj-25",
									"linecount" : 3,
									"maxclass" : "comment",
									"numinlets" : 1,
									"numoutlets" : 0,
									"patching_rect" : [ 20.0, 153.0, 290.0, 47.0 ],
									"text" : "outputs: \n1: lightblue \n2: darkblueL"
								}

							}
, 							{
								"box" : 								{
									"fontname" : "Arial",
									"fontsize" : 12.0,
									"id" : "obj-24",
									"linecount" : 8,
									"maxclass" : "comment",
									"numinlets" : 1,
									"numoutlets" : 0,
									"patching_rect" : [ 20.0, 37.0, 226.0, 114.0 ],
									"text" : "levels: \n1: volL \n2: volR \n3: mix \n4: nc (ignored)\n5: ramp \n6: pfl \n7: pan"
								}

							}
, 							{
								"box" : 								{
									"fontname" : "Arial",
									"fontsize" : 12.0,
									"id" : "obj-20",
									"maxclass" : "comment",
									"numinlets" : 1,
									"numoutlets" : 0,
									"patching_rect" : [ 20.0, 14.0, 353.0, 20.0 ],
									"text" : "the parameters of ll.blues are packed as lists (see clientwindow)."
								}

							}
 ],
						"lines" : [ 							{
								"patchline" : 								{
									"destination" : [ "obj-12", 3 ],
									"source" : [ "obj-11", 0 ]
								}

							}
, 							{
								"patchline" : 								{
									"destination" : [ "obj-11", 0 ],
									"hidden" : 1,
									"source" : [ "obj-12", 3 ]
								}

							}
, 							{
								"patchline" : 								{
									"destination" : [ "obj-14", 0 ],
									"hidden" : 1,
									"source" : [ "obj-12", 1 ]
								}

							}
, 							{
								"patchline" : 								{
									"destination" : [ "obj-15", 0 ],
									"hidden" : 1,
									"source" : [ "obj-12", 2 ]
								}

							}
, 							{
								"patchline" : 								{
									"destination" : [ "obj-7", 1 ],
									"source" : [ "obj-12", 0 ]
								}

							}
, 							{
								"patchline" : 								{
									"destination" : [ "obj-12", 0 ],
									"source" : [ "obj-13", 0 ]
								}

							}
, 							{
								"patchline" : 								{
									"destination" : [ "obj-12", 1 ],
									"source" : [ "obj-14", 1 ]
								}

							}
, 							{
								"patchline" : 								{
									"destination" : [ "obj-12", 2 ],
									"source" : [ "obj-15", 1 ]
								}

							}
, 							{
								"patchline" : 								{
									"destination" : [ "obj-5", 0 ],
									"source" : [ "obj-9", 0 ]
								}

							}
 ]
					}
,
					"patching_rect" : [ 703.0, 438.0, 187.0, 22.0 ],
					"saved_object_attributes" : 					{
						"description" : "",
						"digest" : "",
						"globalpatchername" : "",
						"tags" : ""
					}
,
					"text" : "p more:sending_from_other_acts",
					"varname" : "more:sending_from_other_acts"
				}

			}
, 			{
				"box" : 				{
					"fontname" : "Arial",
					"fontsize" : 12.0,
					"id" : "obj-88",
					"maxclass" : "comment",
					"numinlets" : 1,
					"numoutlets" : 0,
					"patching_rect" : [ 80.0, 280.0, 432.0, 20.0 ],
					"text" : "<<< click on this to make it a bit louder. thats the same as moving the vol-slider."
				}

			}
, 			{
				"box" : 				{
					"fontname" : "Arial",
					"fontsize" : 12.0,
					"id" : "obj-87",
					"maxclass" : "message",
					"numinlets" : 2,
					"numoutlets" : 1,
					"outlettype" : [ "" ],
					"patching_rect" : [ 23.0, 280.0, 52.0, 22.0 ],
					"text" : "volL 0.3"
				}

			}
, 			{
				"box" : 				{
					"fontname" : "Arial",
					"fontsize" : 12.0,
					"hidden" : 1,
					"id" : "obj-86",
					"maxclass" : "newobj",
					"numinlets" : 1,
					"numoutlets" : 0,
					"patcher" : 					{
						"fileversion" : 1,
						"appversion" : 						{
							"major" : 8,
							"minor" : 1,
							"revision" : 2,
							"architecture" : "x64",
							"modernui" : 1
						}
,
						"classnamespace" : "box",
						"rect" : [ 25.0, 69.0, 297.0, 420.0 ],
						"bglocked" : 0,
						"openinpresentation" : 0,
						"default_fontsize" : 12.0,
						"default_fontface" : 0,
						"default_fontname" : "Arial",
						"gridonopen" : 1,
						"gridsize" : [ 15.0, 15.0 ],
						"gridsnaponopen" : 1,
						"objectsnaponopen" : 1,
						"statusbarvisible" : 2,
						"toolbarvisible" : 1,
						"lefttoolbarpinned" : 0,
						"toptoolbarpinned" : 0,
						"righttoolbarpinned" : 0,
						"bottomtoolbarpinned" : 0,
						"toolbars_unpinned_last_save" : 0,
						"tallnewobj" : 0,
						"boxanimatetime" : 200,
						"enablehscroll" : 1,
						"enablevscroll" : 1,
						"devicewidth" : 0.0,
						"description" : "",
						"digest" : "",
						"tags" : "",
						"style" : "",
						"subpatcher_template" : "",
						"boxes" : [ 							{
								"box" : 								{
									"fontname" : "Arial",
									"fontsize" : 12.0,
									"id" : "obj-84",
									"maxclass" : "newobj",
									"numinlets" : 1,
									"numoutlets" : 1,
									"outlettype" : [ "" ],
									"patching_rect" : [ 68.0, 176.0, 84.0, 20.0 ],
									"text" : "prepend send"
								}

							}
, 							{
								"box" : 								{
									"fontname" : "Arial",
									"fontsize" : 12.0,
									"id" : "obj-83",
									"maxclass" : "newobj",
									"numinlets" : 1,
									"numoutlets" : 2,
									"outlettype" : [ "", "bang" ],
									"patching_rect" : [ 91.0, 150.0, 65.0, 20.0 ],
									"text" : "ll.actname"
								}

							}
, 							{
								"box" : 								{
									"fontname" : "Arial",
									"fontsize" : 12.0,
									"id" : "obj-82",
									"maxclass" : "newobj",
									"numinlets" : 1,
									"numoutlets" : 0,
									"patching_rect" : [ 50.0, 209.0, 51.0, 20.0 ],
									"text" : "forward"
								}

							}
, 							{
								"box" : 								{
									"fontname" : "Arial",
									"fontsize" : 12.0,
									"id" : "obj-81",
									"maxclass" : "newobj",
									"numinlets" : 2,
									"numoutlets" : 2,
									"outlettype" : [ "", "" ],
									"patching_rect" : [ 50.0, 148.0, 41.0, 20.0 ],
									"text" : "zl join"
								}

							}
, 							{
								"box" : 								{
									"fontname" : "Arial",
									"fontsize" : 12.0,
									"id" : "obj-80",
									"maxclass" : "newobj",
									"numinlets" : 1,
									"numoutlets" : 1,
									"outlettype" : [ "" ],
									"patching_rect" : [ 50.0, 125.0, 107.0, 20.0 ],
									"text" : "sprintf ll.blues::%s"
								}

							}
, 							{
								"box" : 								{
									"fontname" : "Arial",
									"fontsize" : 12.0,
									"id" : "obj-79",
									"maxclass" : "newobj",
									"numinlets" : 2,
									"numoutlets" : 2,
									"outlettype" : [ "", "" ],
									"patching_rect" : [ 50.0, 100.0, 57.0, 20.0 ],
									"text" : "zl slice 1"
								}

							}
, 							{
								"box" : 								{
									"comment" : "",
									"id" : "obj-85",
									"index" : 1,
									"maxclass" : "inlet",
									"numinlets" : 0,
									"numoutlets" : 1,
									"outlettype" : [ "" ],
									"patching_rect" : [ 50.0, 40.0, 25.0, 25.0 ]
								}

							}
 ],
						"lines" : [ 							{
								"patchline" : 								{
									"destination" : [ "obj-80", 0 ],
									"source" : [ "obj-79", 0 ]
								}

							}
, 							{
								"patchline" : 								{
									"destination" : [ "obj-81", 1 ],
									"source" : [ "obj-79", 1 ]
								}

							}
, 							{
								"patchline" : 								{
									"destination" : [ "obj-81", 0 ],
									"source" : [ "obj-80", 0 ]
								}

							}
, 							{
								"patchline" : 								{
									"destination" : [ "obj-82", 0 ],
									"source" : [ "obj-81", 0 ]
								}

							}
, 							{
								"patchline" : 								{
									"destination" : [ "obj-84", 0 ],
									"source" : [ "obj-83", 0 ]
								}

							}
, 							{
								"patchline" : 								{
									"destination" : [ "obj-82", 0 ],
									"source" : [ "obj-84", 0 ]
								}

							}
, 							{
								"patchline" : 								{
									"destination" : [ "obj-79", 0 ],
									"source" : [ "obj-85", 0 ]
								}

							}
 ]
					}
,
					"patching_rect" : [ 839.0, 704.0, 47.0, 22.0 ],
					"saved_object_attributes" : 					{
						"description" : "",
						"digest" : "",
						"globalpatchername" : "",
						"tags" : ""
					}
,
					"text" : "p send"
				}

			}
, 			{
				"box" : 				{
					"fontname" : "Arial",
					"fontsize" : 12.0,
					"id" : "obj-78",
					"maxclass" : "message",
					"numinlets" : 2,
					"numoutlets" : 1,
					"outlettype" : [ "" ],
					"patching_rect" : [ 23.0, 305.0, 57.0, 22.0 ],
					"text" : "volL 0.2"
				}

			}
, 			{
				"box" : 				{
					"fontname" : "Arial",
					"fontsize" : 12.0,
					"id" : "obj-75",
					"linecount" : 2,
					"maxclass" : "comment",
					"numinlets" : 1,
					"numoutlets" : 0,
					"patching_rect" : [ 24.0, 244.0, 508.0, 33.0 ],
					"text" : "if you opened this patch with ho_st open and audio turned ON and volume of ho_st at 1. ,\nyou should hear the two sine tones left and right."
				}

			}
, 			{
				"box" : 				{
					"fontname" : "Arial",
					"fontsize" : 12.0,
					"id" : "obj-74",
					"linecount" : 2,
					"maxclass" : "comment",
					"numinlets" : 1,
					"numoutlets" : 0,
					"patching_rect" : [ 24.0, 209.0, 546.0, 33.0 ],
					"text" : "in most cases you will only need the volume-slider on top. and leave all other things untouched in its default state."
				}

			}
, 			{
				"box" : 				{
					"fontname" : "Arial",
					"fontsize" : 14.0,
					"id" : "obj-56",
					"linecount" : 2,
					"maxclass" : "comment",
					"numinlets" : 1,
					"numoutlets" : 0,
					"patching_rect" : [ 238.0, 8.0, 232.0, 38.0 ],
					"text" : "the blue output section for ppooll\ncalled ll.blues"
				}

			}
, 			{
				"box" : 				{
					"id" : "obj-16",
					"ignoreclick" : 1,
					"maxclass" : "lcd",
					"numinlets" : 1,
					"numoutlets" : 4,
					"outlettype" : [ "list", "list", "int", "" ],
					"patching_rect" : [ 0.0, 0.0, 157.0, 16.0 ],
					"varname" : "title_LCD"
				}

			}
, 			{
				"box" : 				{
					"color" : [ 0.0, 0.0, 0.0, 1.0 ],
					"fontname" : "Arial",
					"fontsize" : 12.0,
					"hidden" : 1,
					"id" : "obj-1",
					"maxclass" : "newobj",
					"numinlets" : 2,
					"numoutlets" : 0,
					"patching_rect" : [ 1264.0, 114.0, 187.0, 22.0 ],
					"text" : "actmaker blue.output.section.info",
					"varname" : "act"
				}

			}
, 			{
				"box" : 				{
					"color" : [ 0.0, 0.0, 0.0, 1.0 ],
					"fontname" : "Arial",
					"fontsize" : 12.0,
					"hidden" : 1,
					"id" : "obj-2",
					"maxclass" : "newobj",
					"numinlets" : 1,
					"numoutlets" : 1,
					"outlettype" : [ "" ],
					"patching_rect" : [ 1264.0, 72.0, 113.0, 22.0 ],
					"text" : "loadmess loadbang",
					"varname" : "loadmess"
				}

			}
, 			{
				"box" : 				{
					"active" : 					{
						"master" : 0,
						"title_menu" : 0,
						"pres_menu" : 0,
						"tetris_menu" : 0,
						"ll.blues" : 0,
						"ll.blues::levels" : 0,
						"ll.blues::outputs" : 0,
						"ll.blues::state" : 0
					}
,
					"color" : [ 0.0, 0.0, 0.0, 1.0 ],
					"fontname" : "Arial",
					"fontsize" : 12.0,
					"hidden" : 1,
					"id" : "obj-3",
					"maxclass" : "newobj",
					"numinlets" : 1,
					"numoutlets" : 1,
					"outlettype" : [ "" ],
					"patching_rect" : [ 1277.0, 93.0, 100.0, 22.0 ],
					"priority" : 					{
						"title_menu" : 2010,
						"pres_menu" : 2011,
						"tetris_menu" : 2012
					}
,
					"saved_object_attributes" : 					{
						"client_rect" : [ 1193, 142, 1733, 851 ],
						"parameter_enable" : 0,
						"parameter_mappable" : 0,
						"storage_rect" : [ 365, 44, 816, 172 ]
					}
,
					"text" : "pattrstorage pat",
					"varname" : "pat"
				}

			}
, 			{
				"box" : 				{
					"color" : [ 0.0, 0.0, 0.0, 1.0 ],
					"fontname" : "Arial",
					"fontsize" : 12.0,
					"hidden" : 1,
					"id" : "obj-4",
					"maxclass" : "newobj",
					"numinlets" : 1,
					"numoutlets" : 2,
					"outlettype" : [ "", "" ],
					"patching_rect" : [ 1264.0, 135.0, 107.0, 22.0 ],
					"save" : [ "#N", "thispatcher", ";", "#Q", "end", ";" ],
					"text" : "thispatcher",
					"varname" : "thispatcher"
				}

			}
, 			{
				"box" : 				{
					"color" : [ 0.0, 0.0, 0.0, 1.0 ],
					"fontname" : "Arial",
					"fontsize" : 12.0,
					"hidden" : 1,
					"id" : "obj-5",
					"maxclass" : "newobj",
					"numinlets" : 1,
					"numoutlets" : 1,
					"outlettype" : [ "" ],
					"patching_rect" : [ 1264.0, 156.0, 107.0, 22.0 ],
					"text" : "pattrmarker no",
					"varname" : "pattrmarker"
				}

			}
, 			{
				"box" : 				{
					"color" : [ 0.0, 0.0, 0.0, 1.0 ],
					"fontname" : "Arial",
					"fontsize" : 12.0,
					"hidden" : 1,
					"id" : "obj-6",
					"maxclass" : "newobj",
					"numinlets" : 1,
					"numoutlets" : 4,
					"outlettype" : [ "", "", "", "" ],
					"patching_rect" : [ 1264.0, 177.0, 107.0, 22.0 ],
					"restore" : 					{
						"master" : [ 0 ],
						"pres_menu" : [ "" ],
						"tetris_menu" : [ "" ],
						"title_menu" : [ "clientwindow" ]
					}
,
					"text" : "autopattr autopattr",
					"varname" : "autopattr"
				}

			}
, 			{
				"box" : 				{
					"allowdrag" : 0,
					"bgcolor" : [ 1.0, 1.0, 1.0, 0.0 ],
					"bgfillcolor_angle" : 270.0,
					"bgfillcolor_color" : [ 1.0, 1.0, 1.0, 0.0 ],
					"bgfillcolor_color1" : [ 0.376471, 0.384314, 0.4, 1.0 ],
					"bgfillcolor_color2" : [ 0.290196, 0.309804, 0.301961, 1.0 ],
					"bgfillcolor_proportion" : 0.39,
					"bgfillcolor_type" : "color",
					"id" : "obj-8",
					"items" : [ "info", ",", "clientwindow", ",", "storagewindow", ",", "-", ",", "titlebar", ",", "close", ",", "back", ",", "grow", ",", "-", ",", "subpatch", ",", "actmaker" ],
					"maxclass" : "umenu",
					"numinlets" : 1,
					"numoutlets" : 3,
					"outlettype" : [ "int", "", "" ],
					"parameter_enable" : 0,
					"patching_rect" : [ 78.5, 0.0, 78.5, 22.0 ],
					"pattrmode" : 1,
					"textcolor" : [ 0.149, 0.149, 0.149, 1.0 ],
					"varname" : "title_menu"
				}

			}
, 			{
				"box" : 				{
					"allowdrag" : 0,
					"bgcolor" : [ 1.0, 1.0, 1.0, 0.0 ],
					"bgfillcolor_angle" : 270.0,
					"bgfillcolor_color" : [ 1.0, 1.0, 1.0, 0.0 ],
					"bgfillcolor_color1" : [ 0.376471, 0.384314, 0.4, 1.0 ],
					"bgfillcolor_color2" : [ 0.290196, 0.309804, 0.301961, 1.0 ],
					"bgfillcolor_proportion" : 0.39,
					"bgfillcolor_type" : "color",
					"id" : "obj-10",
					"ignoreclick" : 1,
					"items" : [ "-", ",", "write", ",", "clear!", ",", "TEXT" ],
					"maxclass" : "umenu",
					"numinlets" : 1,
					"numoutlets" : 3,
					"outlettype" : [ "int", "", "" ],
					"parameter_enable" : 0,
					"patching_rect" : [ 78.5, 0.0, 78.5, 22.0 ],
					"pattrmode" : 1,
					"textcolor" : [ 0.149, 0.149, 0.149, 1.0 ],
					"varname" : "pres_menu"
				}

			}
, 			{
				"box" : 				{
					"allowdrag" : 0,
					"bgcolor" : [ 1.0, 1.0, 1.0, 0.0 ],
					"bgfillcolor_angle" : 270.0,
					"bgfillcolor_color" : [ 1.0, 1.0, 1.0, 0.0 ],
					"bgfillcolor_color1" : [ 0.376471, 0.384314, 0.4, 1.0 ],
					"bgfillcolor_color2" : [ 0.290196, 0.309804, 0.301961, 1.0 ],
					"bgfillcolor_proportion" : 0.39,
					"bgfillcolor_type" : "color",
					"id" : "obj-12",
					"ignoreclick" : 1,
					"items" : "<empty>",
					"maxclass" : "umenu",
					"numinlets" : 1,
					"numoutlets" : 3,
					"outlettype" : [ "int", "", "" ],
					"parameter_enable" : 0,
					"patching_rect" : [ 78.5, 0.0, 78.5, 22.0 ],
					"pattrmode" : 1,
					"textcolor" : [ 0.149, 0.149, 0.149, 1.0 ],
					"varname" : "tetris_menu"
				}

			}
, 			{
				"box" : 				{
					"filename" : "ll.movewindow.js",
					"id" : "obj-14",
					"maxclass" : "jsui",
					"numinlets" : 1,
					"numoutlets" : 1,
					"outlettype" : [ "" ],
					"parameter_enable" : 0,
					"patching_rect" : [ 0.0, 0.0, 78.5, 14.0 ],
					"varname" : "master"
				}

			}
, 			{
				"box" : 				{
					"id" : "obj-35",
					"maxclass" : "live.line",
					"numinlets" : 1,
					"numoutlets" : 0,
					"patching_rect" : [ 212.5, 124.0, 5.0, 21.0 ]
				}

			}
, 			{
				"box" : 				{
					"id" : "obj-39",
					"maxclass" : "live.line",
					"numinlets" : 1,
					"numoutlets" : 0,
					"patching_rect" : [ 227.5, 128.0, 5.0, 43.0 ]
				}

			}
, 			{
				"box" : 				{
					"id" : "obj-27",
					"maxclass" : "live.line",
					"numinlets" : 1,
					"numoutlets" : 0,
					"patching_rect" : [ 241.0, 124.0, 5.0, 21.0 ]
				}

			}
, 			{
				"box" : 				{
					"id" : "obj-29",
					"maxclass" : "live.line",
					"numinlets" : 1,
					"numoutlets" : 0,
					"patching_rect" : [ 241.0, 115.0, 27.0, 7.0 ]
				}

			}
 ],
		"lines" : [ 			{
				"patchline" : 				{
					"destination" : [ "obj-86", 0 ],
					"hidden" : 1,
					"source" : [ "obj-13", 0 ]
				}

			}
, 			{
				"patchline" : 				{
					"destination" : [ "obj-1", 0 ],
					"hidden" : 1,
					"source" : [ "obj-2", 0 ]
				}

			}
, 			{
				"patchline" : 				{
					"destination" : [ "obj-86", 0 ],
					"hidden" : 1,
					"source" : [ "obj-20", 0 ]
				}

			}
, 			{
				"patchline" : 				{
					"destination" : [ "obj-7", 0 ],
					"source" : [ "obj-22", 0 ]
				}

			}
, 			{
				"patchline" : 				{
					"destination" : [ "obj-1", 1 ],
					"hidden" : 1,
					"source" : [ "obj-3", 0 ]
				}

			}
, 			{
				"patchline" : 				{
					"destination" : [ "obj-86", 0 ],
					"hidden" : 1,
					"source" : [ "obj-30", 0 ]
				}

			}
, 			{
				"patchline" : 				{
					"destination" : [ "obj-86", 0 ],
					"hidden" : 1,
					"source" : [ "obj-31", 0 ]
				}

			}
, 			{
				"patchline" : 				{
					"destination" : [ "obj-86", 0 ],
					"hidden" : 1,
					"source" : [ "obj-33", 0 ]
				}

			}
, 			{
				"patchline" : 				{
					"destination" : [ "obj-86", 0 ],
					"hidden" : 1,
					"source" : [ "obj-43", 0 ]
				}

			}
, 			{
				"patchline" : 				{
					"destination" : [ "obj-86", 0 ],
					"hidden" : 1,
					"source" : [ "obj-45", 0 ]
				}

			}
, 			{
				"patchline" : 				{
					"destination" : [ "obj-86", 0 ],
					"hidden" : 1,
					"source" : [ "obj-47", 0 ]
				}

			}
, 			{
				"patchline" : 				{
					"destination" : [ "obj-86", 0 ],
					"hidden" : 1,
					"source" : [ "obj-50", 0 ]
				}

			}
, 			{
				"patchline" : 				{
					"destination" : [ "obj-86", 0 ],
					"hidden" : 1,
					"source" : [ "obj-62", 0 ]
				}

			}
, 			{
				"patchline" : 				{
					"destination" : [ "obj-62", 0 ],
					"hidden" : 1,
					"source" : [ "obj-63", 0 ]
				}

			}
, 			{
				"patchline" : 				{
					"destination" : [ "obj-68", 0 ],
					"hidden" : 1,
					"source" : [ "obj-67", 0 ]
				}

			}
, 			{
				"patchline" : 				{
					"destination" : [ "obj-86", 0 ],
					"hidden" : 1,
					"source" : [ "obj-68", 0 ]
				}

			}
, 			{
				"patchline" : 				{
					"destination" : [ "obj-86", 0 ],
					"hidden" : 1,
					"source" : [ "obj-70", 0 ]
				}

			}
, 			{
				"patchline" : 				{
					"destination" : [ "obj-86", 0 ],
					"hidden" : 1,
					"source" : [ "obj-71", 0 ]
				}

			}
, 			{
				"patchline" : 				{
					"destination" : [ "obj-86", 0 ],
					"hidden" : 1,
					"source" : [ "obj-76", 0 ]
				}

			}
, 			{
				"patchline" : 				{
					"destination" : [ "obj-86", 0 ],
					"hidden" : 1,
					"source" : [ "obj-78", 0 ]
				}

			}
, 			{
				"patchline" : 				{
					"destination" : [ "obj-86", 0 ],
					"hidden" : 1,
					"source" : [ "obj-87", 0 ]
				}

			}
 ],
		"dependency_cache" : [ 			{
				"name" : "ll.movewindow.js",
				"bootpath" : "~/Documents/Max 8/Packages/ppooll/javascript",
				"patcherrelativepath" : "../../javascript",
				"type" : "TEXT",
				"implicit" : 1
			}
, 			{
				"name" : "actmaker.maxpat",
				"bootpath" : "~/Documents/Max 8/Packages/ppooll/patchers/abstractions/filip",
				"patcherrelativepath" : "../../patchers/abstractions/filip",
				"type" : "JSON",
				"implicit" : 1
			}
, 			{
				"name" : "tetrishelp.js",
				"bootpath" : "~/Documents/Max 8/Packages/ppooll/javascript",
				"patcherrelativepath" : "../../javascript",
				"type" : "TEXT",
				"implicit" : 1
			}
, 			{
				"name" : "n.maxpat",
				"bootpath" : "~/Documents/Max 8/Packages/ppooll/patchers/abstractions/filip",
				"patcherrelativepath" : "../../patchers/abstractions/filip",
				"type" : "JSON",
				"implicit" : 1
			}
, 			{
				"name" : "ll.psto.maxpat",
				"bootpath" : "~/Documents/Max 8/Packages/ppooll/patchers/abstractions/filip",
				"patcherrelativepath" : "../../patchers/abstractions/filip",
				"type" : "JSON",
				"implicit" : 1
			}
, 			{
				"name" : "ll.actname.maxpat",
				"bootpath" : "~/Documents/Max 8/Packages/ppooll/patchers/abstractions/filip",
				"patcherrelativepath" : "../../patchers/abstractions/filip",
				"type" : "JSON",
				"implicit" : 1
			}
, 			{
				"name" : "ll.shut.maxpat",
				"bootpath" : "~/Documents/Max 8/Packages/ppooll/patchers/abstractions/filip",
				"patcherrelativepath" : "../../patchers/abstractions/filip",
				"type" : "JSON",
				"implicit" : 1
			}
, 			{
				"name" : "ll.wsendback.js",
				"bootpath" : "~/Documents/Max 8/Packages/ppooll/javascript",
				"patcherrelativepath" : "../../javascript",
				"type" : "TEXT",
				"implicit" : 1
			}
, 			{
				"name" : "ll.strip#.maxpat",
				"bootpath" : "~/Documents/Max 8/Packages/ppooll/patchers/abstractions/filip",
				"patcherrelativepath" : "../../patchers/abstractions/filip",
				"type" : "JSON",
				"implicit" : 1
			}
, 			{
				"name" : "ll.createact8.js",
				"bootpath" : "~/Documents/Max 8/Packages/ppooll/javascript",
				"patcherrelativepath" : "../../javascript",
				"type" : "TEXT",
				"implicit" : 1
			}
, 			{
				"name" : "ll.textsize.js",
				"bootpath" : "~/Documents/Max 8/Packages/ppooll/javascript",
				"patcherrelativepath" : "../../javascript",
				"type" : "TEXT",
				"implicit" : 1
			}
, 			{
				"name" : "ll.par.maxpat",
				"bootpath" : "~/Documents/Max 8/Packages/ppooll/patchers/abstractions/filip",
				"patcherrelativepath" : "../../patchers/abstractions/filip",
				"type" : "JSON",
				"implicit" : 1
			}
, 			{
				"name" : "ll.actmenu.maxpat",
				"bootpath" : "~/Documents/Max 8/Packages/ppooll/patchers/abstractions/filip",
				"patcherrelativepath" : "../../patchers/abstractions/filip",
				"type" : "JSON",
				"implicit" : 1
			}
, 			{
				"name" : "ll.p.maxpat",
				"bootpath" : "~/Documents/Max 8/Packages/ppooll/patchers/abstractions/filip",
				"patcherrelativepath" : "../../patchers/abstractions/filip",
				"type" : "JSON",
				"implicit" : 1
			}
, 			{
				"name" : "ll.actnamehelper.maxpat",
				"bootpath" : "~/Documents/Max 8/Packages/ppooll/patchers/abstractions/filip",
				"patcherrelativepath" : "../../patchers/abstractions/filip",
				"type" : "JSON",
				"implicit" : 1
			}
, 			{
				"name" : "ll.an.js",
				"bootpath" : "~/Documents/Max 8/Packages/ppooll/javascript",
				"patcherrelativepath" : "../../javascript",
				"type" : "TEXT",
				"implicit" : 1
			}
, 			{
				"name" : "ll.pf.maxpat",
				"bootpath" : "~/Documents/Max 8/Packages/ppooll/patchers/abstractions/filip",
				"patcherrelativepath" : "../../patchers/abstractions/filip",
				"type" : "JSON",
				"implicit" : 1
			}
, 			{
				"name" : "ll.blues.maxpat",
				"bootpath" : "~/Documents/Max 8/Packages/ppooll/patchers/abstractions/filip/ll.blues",
				"patcherrelativepath" : "../../patchers/abstractions/filip/ll.blues",
				"type" : "JSON",
				"implicit" : 1
			}
, 			{
				"name" : "nblue.js",
				"bootpath" : "~/Documents/Max 8/Packages/ppooll/javascript",
				"patcherrelativepath" : "../../javascript",
				"type" : "TEXT",
				"implicit" : 1
			}
, 			{
				"name" : "ll.s~.maxpat",
				"bootpath" : "~/Documents/Max 8/Packages/ppooll/patchers/abstractions/filip",
				"patcherrelativepath" : "../../patchers/abstractions/filip",
				"type" : "JSON",
				"implicit" : 1
			}
, 			{
				"name" : "pattrexists.mxo",
				"type" : "iLaX"
			}
, 			{
				"name" : "ll_fastforward.mxo",
				"type" : "iLaX"
			}
, 			{
				"name" : "ll_number.mxo",
				"type" : "iLaX"
			}
 ],
		"autosave" : 0
	}

}
